<svg xmlns="http://www.w3.org/2000/svg" xmlns:xlink="http://www.w3.org/1999/xlink" id="Layer_1" x="0" y="0" enable-background="new 0 0 270 19.3" version="1.1" viewBox="0 0 270 19.3" xml:space="preserve"><style type="text/css">.st0{fill:none;stroke:#231f20;stroke-miterlimit:10}</style><g id="XMLID_1_"><path id="XMLID_11_" d="M0,0.7c13.5,0,13.5,18,27,18c13.5,0,13.5-18,27-18c13.5,0,13.5,18,27,18c13.5,0,13.5-18,27-18 c13.5,0,13.5,18,27,18c13.5,0,13.5-18,27-18c13.5,0,13.5,18,27,18c13.5,0,13.5-18,27-18c13.5,0,13.5,18,27,18c13.5,0,13.5-18,27-18" class="st0"/></g></svg>